<mxfile host="app.diagrams.net" modified="2022-12-19T14:46:56.485Z" agent="5.0 (Windows NT 10.0; Win64; x64) AppleWebKit/537.36 (KHTML, like Gecko) Chrome/108.0.0.0 Safari/537.36 Edg/108.0.1462.54" etag="s9An3WRwobr3lXQS30Bd" version="20.7.4" type="github">
  <diagram id="C5RBs43oDa-KdzZeNtuy" name="Page-1">
    <mxGraphModel dx="793" dy="450" grid="1" gridSize="10" guides="1" tooltips="1" connect="1" arrows="1" fold="1" page="1" pageScale="1" pageWidth="827" pageHeight="1169" math="0" shadow="0">
      <root>
        <mxCell id="WIyWlLk6GJQsqaUBKTNV-0" />
        <mxCell id="WIyWlLk6GJQsqaUBKTNV-1" parent="WIyWlLk6GJQsqaUBKTNV-0" />
        <mxCell id="om2A2FQE9H7rPmiQ33NH-1" style="edgeStyle=orthogonalEdgeStyle;rounded=0;orthogonalLoop=1;jettySize=auto;html=1;entryX=0.5;entryY=0;entryDx=0;entryDy=0;" edge="1" parent="WIyWlLk6GJQsqaUBKTNV-1" source="WIyWlLk6GJQsqaUBKTNV-3" target="om2A2FQE9H7rPmiQ33NH-0">
          <mxGeometry relative="1" as="geometry" />
        </mxCell>
        <mxCell id="WIyWlLk6GJQsqaUBKTNV-3" value="START" style="rounded=1;whiteSpace=wrap;html=1;fontSize=12;glass=0;strokeWidth=1;shadow=0;arcSize=50;" parent="WIyWlLk6GJQsqaUBKTNV-1" vertex="1">
          <mxGeometry x="160" y="80" width="120" height="40" as="geometry" />
        </mxCell>
        <mxCell id="om2A2FQE9H7rPmiQ33NH-3" style="edgeStyle=orthogonalEdgeStyle;rounded=0;orthogonalLoop=1;jettySize=auto;html=1;entryX=0.5;entryY=0;entryDx=0;entryDy=0;" edge="1" parent="WIyWlLk6GJQsqaUBKTNV-1" source="om2A2FQE9H7rPmiQ33NH-0" target="om2A2FQE9H7rPmiQ33NH-2">
          <mxGeometry relative="1" as="geometry" />
        </mxCell>
        <mxCell id="om2A2FQE9H7rPmiQ33NH-0" value="Inisialisasi Kamera" style="rounded=0;whiteSpace=wrap;html=1;" vertex="1" parent="WIyWlLk6GJQsqaUBKTNV-1">
          <mxGeometry x="160" y="160" width="120" height="40" as="geometry" />
        </mxCell>
        <mxCell id="om2A2FQE9H7rPmiQ33NH-5" style="edgeStyle=orthogonalEdgeStyle;rounded=0;orthogonalLoop=1;jettySize=auto;html=1;entryX=0.5;entryY=0;entryDx=0;entryDy=0;" edge="1" parent="WIyWlLk6GJQsqaUBKTNV-1" source="om2A2FQE9H7rPmiQ33NH-2" target="om2A2FQE9H7rPmiQ33NH-4">
          <mxGeometry relative="1" as="geometry" />
        </mxCell>
        <mxCell id="om2A2FQE9H7rPmiQ33NH-2" value="Inisialisasi Koneksi Wi-Fi" style="rounded=0;whiteSpace=wrap;html=1;" vertex="1" parent="WIyWlLk6GJQsqaUBKTNV-1">
          <mxGeometry x="160" y="240" width="120" height="40" as="geometry" />
        </mxCell>
        <mxCell id="om2A2FQE9H7rPmiQ33NH-8" style="edgeStyle=orthogonalEdgeStyle;rounded=0;orthogonalLoop=1;jettySize=auto;html=1;entryX=0;entryY=0.5;entryDx=0;entryDy=0;" edge="1" parent="WIyWlLk6GJQsqaUBKTNV-1" source="om2A2FQE9H7rPmiQ33NH-4" target="om2A2FQE9H7rPmiQ33NH-7">
          <mxGeometry relative="1" as="geometry" />
        </mxCell>
        <mxCell id="om2A2FQE9H7rPmiQ33NH-4" value="Inisialisasi Sensor dan LED" style="rounded=0;whiteSpace=wrap;html=1;" vertex="1" parent="WIyWlLk6GJQsqaUBKTNV-1">
          <mxGeometry x="160" y="320" width="120" height="40" as="geometry" />
        </mxCell>
        <mxCell id="om2A2FQE9H7rPmiQ33NH-10" style="edgeStyle=orthogonalEdgeStyle;rounded=0;orthogonalLoop=1;jettySize=auto;html=1;entryX=0.5;entryY=0;entryDx=0;entryDy=0;" edge="1" parent="WIyWlLk6GJQsqaUBKTNV-1" source="om2A2FQE9H7rPmiQ33NH-7" target="om2A2FQE9H7rPmiQ33NH-9">
          <mxGeometry relative="1" as="geometry" />
        </mxCell>
        <mxCell id="om2A2FQE9H7rPmiQ33NH-7" value="PIR Scanning" style="rounded=0;whiteSpace=wrap;html=1;" vertex="1" parent="WIyWlLk6GJQsqaUBKTNV-1">
          <mxGeometry x="360" y="160" width="120" height="40" as="geometry" />
        </mxCell>
        <mxCell id="om2A2FQE9H7rPmiQ33NH-11" style="edgeStyle=orthogonalEdgeStyle;rounded=0;orthogonalLoop=1;jettySize=auto;html=1;entryX=1;entryY=0.5;entryDx=0;entryDy=0;" edge="1" parent="WIyWlLk6GJQsqaUBKTNV-1" source="om2A2FQE9H7rPmiQ33NH-9" target="om2A2FQE9H7rPmiQ33NH-7">
          <mxGeometry relative="1" as="geometry">
            <Array as="points">
              <mxPoint x="520" y="280" />
              <mxPoint x="520" y="180" />
            </Array>
          </mxGeometry>
        </mxCell>
        <mxCell id="om2A2FQE9H7rPmiQ33NH-12" value="tidak" style="edgeLabel;html=1;align=center;verticalAlign=middle;resizable=0;points=[];" vertex="1" connectable="0" parent="om2A2FQE9H7rPmiQ33NH-11">
          <mxGeometry x="0.018" y="-2" relative="1" as="geometry">
            <mxPoint x="-32" y="42" as="offset" />
          </mxGeometry>
        </mxCell>
        <mxCell id="om2A2FQE9H7rPmiQ33NH-15" value="ya" style="edgeStyle=orthogonalEdgeStyle;rounded=0;orthogonalLoop=1;jettySize=auto;html=1;entryX=0.5;entryY=0;entryDx=0;entryDy=0;" edge="1" parent="WIyWlLk6GJQsqaUBKTNV-1" source="om2A2FQE9H7rPmiQ33NH-9" target="om2A2FQE9H7rPmiQ33NH-14">
          <mxGeometry x="-0.5" relative="1" as="geometry">
            <mxPoint as="offset" />
          </mxGeometry>
        </mxCell>
        <mxCell id="om2A2FQE9H7rPmiQ33NH-9" value="&lt;font style=&quot;font-size: 10px;&quot;&gt;Gerakan Terdeteksi?&lt;/font&gt;" style="rhombus;whiteSpace=wrap;html=1;" vertex="1" parent="WIyWlLk6GJQsqaUBKTNV-1">
          <mxGeometry x="380" y="240" width="80" height="80" as="geometry" />
        </mxCell>
        <mxCell id="om2A2FQE9H7rPmiQ33NH-25" style="edgeStyle=orthogonalEdgeStyle;rounded=0;orthogonalLoop=1;jettySize=auto;html=1;entryX=0.5;entryY=0;entryDx=0;entryDy=0;" edge="1" parent="WIyWlLk6GJQsqaUBKTNV-1" source="om2A2FQE9H7rPmiQ33NH-14" target="om2A2FQE9H7rPmiQ33NH-24">
          <mxGeometry relative="1" as="geometry" />
        </mxCell>
        <mxCell id="om2A2FQE9H7rPmiQ33NH-14" value="Pengambilan Gambar" style="rounded=0;whiteSpace=wrap;html=1;" vertex="1" parent="WIyWlLk6GJQsqaUBKTNV-1">
          <mxGeometry x="360" y="360" width="120" height="40" as="geometry" />
        </mxCell>
        <mxCell id="om2A2FQE9H7rPmiQ33NH-22" style="edgeStyle=orthogonalEdgeStyle;rounded=0;orthogonalLoop=1;jettySize=auto;html=1;entryX=0;entryY=0.5;entryDx=0;entryDy=0;" edge="1" parent="WIyWlLk6GJQsqaUBKTNV-1" source="om2A2FQE9H7rPmiQ33NH-16" target="om2A2FQE9H7rPmiQ33NH-20">
          <mxGeometry relative="1" as="geometry">
            <Array as="points">
              <mxPoint x="560" y="460" />
              <mxPoint x="560" y="180" />
            </Array>
          </mxGeometry>
        </mxCell>
        <mxCell id="om2A2FQE9H7rPmiQ33NH-16" value="Gambar" style="shape=parallelogram;perimeter=parallelogramPerimeter;whiteSpace=wrap;html=1;fixedSize=1;" vertex="1" parent="WIyWlLk6GJQsqaUBKTNV-1">
          <mxGeometry x="500" y="560" width="120" height="40" as="geometry" />
        </mxCell>
        <mxCell id="om2A2FQE9H7rPmiQ33NH-23" style="edgeStyle=orthogonalEdgeStyle;rounded=0;orthogonalLoop=1;jettySize=auto;html=1;entryX=0.5;entryY=0;entryDx=0;entryDy=0;" edge="1" parent="WIyWlLk6GJQsqaUBKTNV-1" source="om2A2FQE9H7rPmiQ33NH-20" target="om2A2FQE9H7rPmiQ33NH-7">
          <mxGeometry relative="1" as="geometry">
            <Array as="points">
              <mxPoint x="660" y="140" />
              <mxPoint x="420" y="140" />
            </Array>
          </mxGeometry>
        </mxCell>
        <mxCell id="om2A2FQE9H7rPmiQ33NH-20" value="Pengiriman ke Drive" style="rounded=0;whiteSpace=wrap;html=1;" vertex="1" parent="WIyWlLk6GJQsqaUBKTNV-1">
          <mxGeometry x="600" y="160" width="120" height="40" as="geometry" />
        </mxCell>
        <mxCell id="om2A2FQE9H7rPmiQ33NH-26" value="tidak" style="edgeStyle=orthogonalEdgeStyle;rounded=0;orthogonalLoop=1;jettySize=auto;html=1;fontSize=10;" edge="1" parent="WIyWlLk6GJQsqaUBKTNV-1" source="om2A2FQE9H7rPmiQ33NH-24">
          <mxGeometry x="-0.85" relative="1" as="geometry">
            <mxPoint x="480" y="180" as="targetPoint" />
            <Array as="points">
              <mxPoint x="520" y="480" />
              <mxPoint x="520" y="180" />
            </Array>
            <mxPoint as="offset" />
          </mxGeometry>
        </mxCell>
        <mxCell id="om2A2FQE9H7rPmiQ33NH-27" style="edgeStyle=orthogonalEdgeStyle;rounded=0;orthogonalLoop=1;jettySize=auto;html=1;entryX=0;entryY=0.5;entryDx=0;entryDy=0;fontSize=10;" edge="1" parent="WIyWlLk6GJQsqaUBKTNV-1" source="om2A2FQE9H7rPmiQ33NH-24" target="om2A2FQE9H7rPmiQ33NH-16">
          <mxGeometry relative="1" as="geometry">
            <Array as="points">
              <mxPoint x="420" y="580" />
            </Array>
          </mxGeometry>
        </mxCell>
        <mxCell id="om2A2FQE9H7rPmiQ33NH-28" value="ya" style="edgeLabel;html=1;align=center;verticalAlign=middle;resizable=0;points=[];fontSize=10;" vertex="1" connectable="0" parent="om2A2FQE9H7rPmiQ33NH-27">
          <mxGeometry x="-0.7291" y="-2" relative="1" as="geometry">
            <mxPoint as="offset" />
          </mxGeometry>
        </mxCell>
        <mxCell id="om2A2FQE9H7rPmiQ33NH-24" value="Berhasil?" style="rhombus;whiteSpace=wrap;html=1;" vertex="1" parent="WIyWlLk6GJQsqaUBKTNV-1">
          <mxGeometry x="380" y="440" width="80" height="80" as="geometry" />
        </mxCell>
      </root>
    </mxGraphModel>
  </diagram>
</mxfile>
